<svg xmlns="http://www.w3.org/2000/svg" xmlns:xlink="http://www.w3.org/1999/xlink" width="121" height="66" viewBox="0 0 121 66">
    <defs>
        <path id="b" d="M59.333 23.024c1.578-.735 2.239-1.898 2.438-2.87A2.745 2.745 0 0 0 64 17.47c0-1.508-1.237-2.735-2.758-2.735h-.839c-1.52 0-2.758 1.227-2.758 2.735a2.74 2.74 0 0 0 2.048 2.639c-.014.033-.03.066-.047.1-.243.475-.704.847-1.374 1.112a21.897 21.897 0 0 0-.805-1.125c-.072-1.2-.437-5.44-2.119-9.741C52.693 3.664 48.041.074 41.893.074h-14.2c-.552 0-1 .444-1 .992s.448.992 1 .992h14.2c5.313 0 9.207 3.052 11.573 9.072 1.325 3.368 1.788 6.785 1.944 8.44H8.59c.156-1.655.62-5.072 1.944-8.44 2.366-6.02 6.26-9.072 11.573-9.072h1.585c.552 0 1-.444 1-.992a.996.996 0 0 0-1-.992h-1.585c-6.148 0-10.8 3.59-13.455 10.382-1.682 4.301-2.047 8.54-2.12 9.741-.178.232-.458.611-.804 1.125-.67-.265-1.131-.637-1.374-1.113a1.76 1.76 0 0 1-.047-.1 2.741 2.741 0 0 0 2.048-2.638c0-1.508-1.238-2.735-2.758-2.735h-.839C1.238 14.736 0 15.963 0 17.47c0 1.328.96 2.437 2.23 2.683.199.973.86 2.135 2.438 2.87-.411.71-.85 1.532-1.286 2.456l-.009.02c-.083.177-.166.356-.249.54-1.56 3.475-3.28 8.97-2.63 15.437V52.8c0 2.825 2.32 5.124 5.17 5.124s5.168-2.299 5.168-5.124v-4.246h12.727v1.504c0 .548.448.992 1 .992H39.44c.553 0 1-.444 1-.992v-1.504h12.728v4.246c0 2.826 2.319 5.124 5.169 5.124 2.85 0 5.168-2.298 5.168-5.124V41.477c.65-6.466-1.069-11.962-2.63-15.437a33.09 33.09 0 0 0-1.542-3.016zm.313-5.553c0-.415.34-.752.757-.752h.839c.418 0 .758.338.758.752s-.34.75-.758.75h-.839a.755.755 0 0 1-.757-.75zm-56.05.75h-.838a.755.755 0 0 1-.757-.75c0-.415.34-.752.757-.752h.839c.417 0 .757.338.757.752s-.34.75-.757.75zm4.413 3.333H55.99c.464.622 1.443 2.028 2.458 4.049-.564.382-1.154.727-1.763 1.033a4.795 4.795 0 0 0-2.635-.785 4.804 4.804 0 0 0-4.2 2.464c-.09.002-.179.004-.267.004H14.416c-.088 0-.177-.002-.266-.004a4.804 4.804 0 0 0-4.2-2.464c-.973 0-1.88.29-2.636.785A15.8 15.8 0 0 1 5.547 25.6c1.013-2.012 1.997-3.423 2.462-4.046zm48.836 9.05c0 1.528-1.253 2.77-2.794 2.77-1.54 0-2.794-1.242-2.794-2.77 0-1.527 1.253-2.77 2.794-2.77 1.54 0 2.794 1.243 2.794 2.77zm-44.102 0c0 1.528-1.253 2.77-2.794 2.77-1.54 0-2.794-1.242-2.794-2.77 0-1.527 1.253-2.77 2.794-2.77 1.54 0 2.794 1.243 2.794 2.77zM2.394 37.206c.021.037.027.06.027.06l-.03.012.003-.072zM8.831 52.8c0 1.732-1.42 3.14-3.168 3.14-1.747 0-3.168-1.408-3.168-3.14v-6.803l.024.025a7.937 7.937 0 0 0 4.405 2.408c.633.112 1.267.124 1.907.124v4.246zm29.61-3.734H25.56V46.06h12.88v3.008zm19.896 6.875c-1.747 0-3.168-1.41-3.168-3.141v-4.246c.956 0 1.893-.058 2.812-.34a8.024 8.024 0 0 0 2.28-1.118 7.719 7.719 0 0 0 1.22-1.074l.024-.025v6.803c0 1.732-1.421 3.14-3.168 3.14zm3.173-14.61a5.836 5.836 0 0 1-5.834 5.24H40.441v-1.504a.996.996 0 0 0-1-.992H24.56c-.553 0-1 .444-1 .992v1.504H8.323a5.836 5.836 0 0 1-5.834-5.24 26.129 26.129 0 0 1-.118-1.684c.605.334 1.405.684 2.466 1.017a3.322 3.322 0 0 0 2.678 1.352c.57 0 1.106-.144 1.575-.396 3.34.532 7.526.803 12.458.803H42.45c4.932 0 9.119-.27 12.458-.803a3.317 3.317 0 0 0 1.575.396 3.322 3.322 0 0 0 2.677-1.352c1.062-.333 1.862-.683 2.466-1.017a26.43 26.43 0 0 1-.117 1.684zM6.2 38.73c0-.719.59-1.304 1.316-1.304.725 0 1.315.585 1.315 1.304 0 .72-.59 1.304-1.315 1.304A1.311 1.311 0 0 1 6.2 38.729zm48.969 0c0-.719.59-1.304 1.315-1.304s1.315.585 1.315 1.304c0 .72-.59 1.304-1.315 1.304a1.311 1.311 0 0 1-1.315-1.304zm6.443-1.45l-.033-.014s.006-.024.03-.064l.003.078zm-1.837 1.056a3.31 3.31 0 0 0-3.29-2.893c-1.83 0-3.317 1.475-3.317 3.287 0 .39.07.765.196 1.112-3.019.398-6.678.6-10.913.6H21.55c-4.235 0-7.894-.202-10.913-.6.126-.347.196-.722.196-1.112 0-1.812-1.488-3.287-3.316-3.287a3.31 3.31 0 0 0-3.291 2.893c-1.356-.564-1.764-1.044-1.83-1.133.214-3.949 1.266-7.328 2.305-9.778.38.246.768.478 1.164.695a4.695 4.695 0 0 0-.71 2.485c0 2.622 2.151 4.754 4.795 4.754s4.795-2.132 4.795-4.754c0-.101-.005-.202-.011-.302h34.534c-.006.1-.01.2-.01.302 0 2.622 2.15 4.754 4.794 4.754 2.644 0 4.794-2.132 4.794-4.754 0-.91-.26-1.762-.71-2.485.395-.216.781-.446 1.158-.691 1.115 2.625 2.11 5.96 2.315 9.77-.06.08-.461.566-1.833 1.137z"/>
        <filter id="a" width="121.9%" height="124.2%" x="-10.9%" y="-8.6%" filterUnits="objectBoundingBox">
            <feOffset dy="2" in="SourceAlpha" result="shadowOffsetOuter1"/>
            <feGaussianBlur in="shadowOffsetOuter1" result="shadowBlurOuter1" stdDeviation="2"/>
            <feColorMatrix in="shadowBlurOuter1" values="0 0 0 0 0.439215686 0 0 0 0 0.678431373 0 0 0 0 0.301960784 0 0 0 0.300724638 0"/>
        </filter>
        <path id="d" d="M45.879 34.476h-10.85A3.194 3.194 0 0 0 32 32.304c-1.41 0-2.608.912-3.029 2.172H18.121c-.552 0-1 .444-1 .991 0 .548.448.992 1 .992h10.85A3.194 3.194 0 0 0 32 38.631c1.41 0 2.609-.912 3.03-2.172h10.849c.552 0 1-.444 1-.992a.996.996 0 0 0-1-.991zM32 36.648c-.657 0-1.19-.53-1.19-1.18 0-.652.534-1.181 1.19-1.181.657 0 1.19.53 1.19 1.18 0 .652-.533 1.181-1.19 1.181z"/>
        <filter id="c" width="147%" height="321.2%" x="-23.5%" y="-79%" filterUnits="objectBoundingBox">
            <feOffset dy="2" in="SourceAlpha" result="shadowOffsetOuter1"/>
            <feGaussianBlur in="shadowOffsetOuter1" result="shadowBlurOuter1" stdDeviation="2"/>
            <feColorMatrix in="shadowBlurOuter1" values="0 0 0 0 0.439215686 0 0 0 0 0.678431373 0 0 0 0 0.301960784 0 0 0 0.300724638 0"/>
        </filter>
        <path id="f" d="M52.919 16.4a27.314 27.314 0 0 0-1.301-4.51c-.937-2.398-2.144-4.275-3.586-5.579-1.689-1.527-3.697-2.27-6.138-2.27H39.43c-.553 0-1 .445-1 .992 0 .548.447.992 1 .992h2.464c1.92 0 3.486.573 4.79 1.751 1.212 1.097 2.244 2.722 3.069 4.83.361.925.676 1.93.939 2.998h-27.63c-.552 0-1 .444-1 .991 0 .548.448.992 1 .992h28.876c.3 0 .584-.133.774-.363a.986.986 0 0 0 .207-.824z"/>
        <filter id="e" width="145.3%" height="203.4%" x="-22.7%" y="-36.9%" filterUnits="objectBoundingBox">
            <feOffset dy="2" in="SourceAlpha" result="shadowOffsetOuter1"/>
            <feGaussianBlur in="shadowOffsetOuter1" result="shadowBlurOuter1" stdDeviation="2"/>
            <feColorMatrix in="shadowBlurOuter1" values="0 0 0 0 0.439215686 0 0 0 0 0.678431373 0 0 0 0 0.301960784 0 0 0 0.300724638 0"/>
        </filter>
        <path id="h" d="M35.428 4.042H22.108c-2.415 0-4.404.725-6.08 2.217-1.435 1.277-2.64 3.117-3.581 5.47-.564 1.41-1.023 2.981-1.365 4.671a.985.985 0 0 0 .207.824c.19.23.474.363.774.363h7c.551 0 1-.444 1-.992a.996.996 0 0 0-1-.991h-5.754c.277-1.124.611-2.178.998-3.144.826-2.065 1.854-3.655 3.057-4.725 1.293-1.15 2.845-1.71 4.744-1.71h13.322c.552 0 1-.444 1-.991a.996.996 0 0 0-1-.992z"/>
        <filter id="g" width="155.2%" height="203.4%" x="-27.6%" y="-36.9%" filterUnits="objectBoundingBox">
            <feOffset dy="2" in="SourceAlpha" result="shadowOffsetOuter1"/>
            <feGaussianBlur in="shadowOffsetOuter1" result="shadowBlurOuter1" stdDeviation="2"/>
            <feColorMatrix in="shadowBlurOuter1" values="0 0 0 0 0.439215686 0 0 0 0 0.678431373 0 0 0 0 0.301960784 0 0 0 0.300724638 0"/>
        </filter>
    </defs>
    <g fill="none" fill-rule="evenodd">
        <text fill="#CCC"  font-size="50" font-weight="500" transform="translate(-4 -9)">
            <tspan x="63.651" y="61" font-family="-apple-system,BlinkMacSystemFont,Segoe UI,Roboto,Helvetica,Arial,sans-serif">02</tspan>
        </text>
        <g fill-rule="nonzero">
            <g transform="translate(4 2)">
                <use fill="#000" filter="url(#a)" xlink:href="#b"/>
                <use fill="#70AD4D" xlink:href="#b"/>
            </g>
            <g transform="translate(4 2)">
                <use fill="#000" filter="url(#c)" xlink:href="#d"/>
                <use fill="#70AD4D" xlink:href="#d"/>
            </g>
            <g transform="translate(4 2)">
                <use fill="#000" filter="url(#e)" xlink:href="#f"/>
                <use fill="#70AD4D" xlink:href="#f"/>
            </g>
            <g transform="translate(4 2)">
                <use fill="#000" filter="url(#g)" xlink:href="#h"/>
                <use fill="#70AD4D" xlink:href="#h"/>
            </g>
        </g>
    </g>
</svg>
