<svg xmlns="http://www.w3.org/2000/svg" xmlns:xlink="http://www.w3.org/1999/xlink" width="83" height="63" viewBox="0 0 83 63">
    <defs>
        <path id="a" d="M0 0h83v83H0z"/>
    </defs>
    <g fill="none" fill-rule="evenodd" transform="translate(0 -10)">
        <mask id="b" fill="#fff">
            <use xlink:href="#a"/>
        </mask>
        <g mask="url(#b)">
            <path fill="#70AD4D" fill-rule="nonzero" d="M78.805 51.953a15.043 15.043 0 0 0-4.426-3.171c.075-.181.115-.374.117-.57l-.003-.03.003-.028-.011-.112.011-.112v-2.58l-.002-.021.002-.037-.011-.112.011-.112v-2.58l-.002-.022.002-.036-.011-.113.01-.112v-2.58l-.001-.021.002-.037-.012-.112.012-.112v-2.58l-.002-.022.002-.036-.012-.112.012-.112V33.9l-.01-.101.01-.1v-2.581c0-2.027-3.807-2.95-7.345-2.95-3.537 0-7.345.923-7.345 2.95v2.114a32.326 32.326 0 0 0-4.5-5.591c.987.282 2.008.431 3.035.442a6.107 6.107 0 0 0 1.61-.176c.584-.174.918-.783.747-1.365a1.112 1.112 0 0 0-1.369-.753 7.662 7.662 0 0 1-3.817-.388 8.067 8.067 0 0 0 4.01-3.445 3.091 3.091 0 0 0-.103-3.218 2.838 2.838 0 0 0-2.284-1.31 6.542 6.542 0 0 0-3.816 1.525c.582-1.757.86-3.598.824-5.447 0-.61-.498-1.103-1.111-1.103a3.567 3.567 0 0 1-1.737-.602 5.569 5.569 0 0 0-2.801-.872 3.667 3.667 0 0 0-2.525.984 1.532 1.532 0 0 1-2.247 0 3.732 3.732 0 0 0-5.05 0c-.288.313-.695.49-1.122.489a4.473 4.473 0 0 1-1.926-.623 6.414 6.414 0 0 0-2.91-.85l-.023.002-.123.013-.097.014-.11.034-.096.032-.097.053-.088.052-.086.071-.075.066-.072.086-.062.08-.051.093-.05.097-.029.094-.032.119-.005.022c-.111.683-.184 1.372-.217 2.063a14.127 14.127 0 0 0-5.8-1.048c-3.538 0-7.345.924-7.345 2.95v2.58l.01.102-.01.1v2.58l.011.113-.011.112.002.037-.002.021v2.58l.011.112-.011.112.002.037-.002.021v1.283l.16.072a18.742 18.742 0 0 0-3.335-.289c-3.538 0-7.345.923-7.345 2.95v2.581l.01.1-.01.101v2.58l.01.113-.01.112.001.036-.002.022v2.58l.012.112-.012.112.002.037-.001.02v2.581l.01.112-.01.112.001.037-.001.022v2.58l.01.112-.01.112.001.036-.001.021v2.58l.01.113-.01.112.001.036-.002.022v2.58l.012.112-.012.112.008.135-.008.078-.02 1.026a17.246 17.246 0 0 0-3.335 2.62C1.95 54.51-.03 57.702 1.164 59.202l.111.141L3.11 61.17l.087.07.073.087c.343.33.808.504 1.285.483a4.8 4.8 0 0 0 2.088-.6 16.135 16.135 0 0 0 3.926-2.943l.513-.528a7.953 7.953 0 0 0 5.144 6.564c2.822 1.05 6 .436 8.22-1.59a10.69 10.69 0 0 0 3.213 1.666c-1.461.483-2.471 1.232-2.471 2.276v2.58l.011.113-.011.112c0 2.027 3.807 2.95 7.345 2.95 3.537 0 7.344-.923 7.344-2.95l-.011-.112.011-.112v-2.58a1.942 1.942 0 0 0-.994-1.585h12.111a13.752 13.752 0 0 0 9.583-2.487c.792 1.524 4.08 2.226 7.166 2.226 3.537 0 7.345-.923 7.345-2.95l-.012-.113.012-.112v-1.443c.458.322.94.61 1.44.865a4.791 4.791 0 0 0 2.09.603c.476.02.94-.153 1.282-.482l.073-.086.087-.071 1.838-1.825.111-.14c1.2-1.499-.778-4.694-3.204-7.103zm1.936 6.094c-.402.145-2.445-.546-4.983-3.067a10.04 10.04 0 0 1-3.103-4.733l.42-.2a11 11 0 0 1 4.577 3.05c2.538 2.522 3.235 4.551 3.089 4.95zm-10.233-2.4c.147.257.268.494.363.71a18.726 18.726 0 0 0-2.79-.25 17.17 17.17 0 0 1-1.862-1.645 17.572 17.572 0 0 1-1.408-1.605 26.23 26.23 0 0 0-.025-2.866c1.24.7 2.368 1.58 3.348 2.61.64.643 1.227 1.338 1.754 2.076.182.317.39.641.62.97zm2.368-19.052l-.011.097c-.142.377-2.083 1.344-5.714 1.344a11.07 11.07 0 0 1-5.403-1.055l-.129-.309-.182-.403v-.401c1.816.72 3.76 1.062 5.714 1.005a14.367 14.367 0 0 0 5.714-1.005v.613l.011.114zm-.001-2.795v.01l-.01.077c-.141.377-2.082 1.344-5.713 1.344-3.631 0-5.573-.967-5.715-1.343l-.009-.078-.001-.01.01-.1v-.637c1.815.72 3.76 1.063 5.714 1.006a14.367 14.367 0 0 0 5.714-1.006v.636l.01.1zm-5.724 5.913a14.367 14.367 0 0 0 5.714-1.005v.635l.011.114-.011.098c-.142.376-2.083 1.343-5.714 1.343a14.54 14.54 0 0 1-4.209-.545c-.132-.43-.265-.842-.399-1.235 1.5.412 3.052.612 4.608.595zm1.758 11.372l.456-.048-.183.316-.273-.268zm3.967-3.041l-.011.097a.741.741 0 0 1-.29.277 1.694 1.694 0 0 0-.922.352l-.142.111-.014.014c-1.409.42-2.875.619-4.346.59l-.14-.003a12.295 12.295 0 0 0-1.601-1.004 7.303 7.303 0 0 0-.772-.344c.833.11 1.673.165 2.513.166a14.367 14.367 0 0 0 5.714-1.006v.636l.011.114zm-8.572 8.369c.107-.428.202-.865.276-1.321l.473.504.634.614c-.474.05-.938.117-1.383.203zm8.572-11.232l-.011.098c-.142.376-2.083 1.343-5.714 1.343a16.98 16.98 0 0 1-2.772-.213l-.216-1.204c.988.156 1.987.234 2.988.233a14.365 14.365 0 0 0 5.713-1.006v.636l.012.113zm0-2.862l-.011.098c-.142.376-2.083 1.343-5.714 1.343-1.132.01-2.262-.1-3.371-.328l-.306-1.215c1.21.244 2.442.364 3.676.359a14.367 14.367 0 0 0 5.714-1.006v.636l.012.113zM62.03 59.07c.134-.374 2.074-1.346 5.714-1.346 2-.238 4.022.226 5.716 1.31v.002c-.125.372-2.067 1.35-5.716 1.35-2 .234-4.02-.228-5.714-1.308v-.008zm5.122-29.282a8.565 8.565 0 0 1 5.708 1.33 8.567 8.567 0 0 1-5.708 1.33 8.567 8.567 0 0 1-5.708-1.33 8.565 8.565 0 0 1 5.708-1.33zm-24.784-4.944a16.525 16.525 0 0 1-5.041-.633 43.84 43.84 0 0 0 4.83.249c1.842 0 3.339-.1 4.344-.193-1.34.401-2.733.596-4.132.577zm-11.042-6.34l-.001.012-.01.078c-.141.377-2.082 1.343-5.713 1.343-3.631 0-5.572-.966-5.714-1.343l-.009-.078v-.01l.01-.101v-.636c1.815.72 3.76 1.062 5.713 1.006a14.366 14.366 0 0 0 5.714-1.006v.636l.01.1zM25.6 21.579a14.366 14.366 0 0 0 5.713-1.005v.613l.012.113-.012.098c-.141.376-2.082 1.343-5.713 1.343-3.632 0-5.572-.967-5.714-1.343l-.012-.098.012-.113v-.613c1.815.72 3.76 1.062 5.714 1.005zm0 2.84a14.366 14.366 0 0 0 5.713-1.005v.635l.012.114-.012.097c-.142.377-2.082 1.344-5.713 1.344-3.632 0-5.573-.967-5.714-1.344l-.012-.097.012-.114v-.635c1.815.72 3.76 1.062 5.714 1.005zm-4.797 6.61l-.008.083c-.124.371-2.066 1.35-5.715 1.35-3.65 0-5.595-.979-5.714-1.33l-.01-.104.01-.1v-.636c1.815.72 3.76 1.062 5.714 1.005a14.368 14.368 0 0 0 5.714-1.005v.636l.01.101zm-5.724 3.073c1.954.057 3.9-.285 5.715-1.005v.612l.012.115-.01.09c-.121.372-2.063 1.35-5.716 1.35-3.652 0-5.594-.978-5.713-1.33l-.013-.112.012-.113v-.612c1.815.72 3.76 1.062 5.714 1.005zm0 2.84c1.954.057 3.9-.285 5.715-1.006v.635l.012.115-.01.09c-.121.372-2.063 1.35-5.716 1.35-3.652 0-5.594-.978-5.713-1.33l-.013-.112.012-.113v-.635c1.815.72 3.76 1.062 5.714 1.005v.001zm0 2.863a14.368 14.368 0 0 0 5.714-1.006v.636l.011.114-.009.09c-.121.371-2.063 1.35-5.716 1.35-3.652 0-5.594-.979-5.713-1.33l-.012-.113.012-.112v-.635c1.815.72 3.76 1.062 5.714 1.005zm0 2.862c1.954.056 3.9-.286 5.715-1.006v.636l.012.114-.01.09c-.121.372-2.063 1.35-5.716 1.35-3.652 0-5.594-.978-5.713-1.33l-.013-.112.012-.112v-.636c1.815.72 3.76 1.062 5.714 1.005zm0 2.862c1.944.055 3.88-.283 5.688-.993l-.21 1.074a10.687 10.687 0 0 1-5.478 1.104c-3.652 0-5.593-.978-5.714-1.33l-.01-.113.01-.112v-.636c1.816.72 3.76 1.062 5.715 1.005zm0 2.862c1.755.033 3.503-.23 5.17-.777l-.125 1.102-.496.202-.583-.029a8.012 8.012 0 0 0-3.21.671l-.755.016a16.412 16.412 0 0 1-3.152-.283l-.248-.247a1.957 1.957 0 0 0-1.853-.429c-.274-.147-.43-.28-.461-.371l-.012-.113.012-.112v-.635c1.815.72 3.76 1.062 5.714 1.005zm7.345-9.983l.048.009-.048.134v-.143zm.718-1.73l-.082.197-.639-.111-.008-.08.011-.113v-.966c.367.064.745.116 1.13.156l-.412.916zm1.246-2.527c-.66-.04-1.317-.122-1.967-.248l-.008-.082.011-.112v-.969c.878.149 1.765.234 2.654.254-.237.378-.468.762-.69 1.157zm1.827-2.837l-.615.014a16.298 16.298 0 0 1-3.185-.29l-.001-.01.01-.1v-1.048c1.05.177 2.111.265 3.176.264.52 0 1.043-.023 1.561-.063-.32.398-.636.809-.946 1.233zm2.605-3.145a17.639 17.639 0 0 1-6.406.01 1.955 1.955 0 0 0-.882-1.341c1.334.304 2.7.453 4.068.444 1.59.02 3.176-.189 4.707-.62-.49.469-.988.97-1.487 1.506zm4.125-3.837l-.003-.022.003-.036-.012-.113.012-.112v-2.58l-.002-.022.002-.036-.012-.112.012-.112v-.391a9.302 9.302 0 0 0 1.816 2.174c-.503.357-1.123.817-1.816 1.375v-.014zm24.085-4.7c.23.006.438.135.543.337.073.106.264.39-.045 1.013a6.421 6.421 0 0 1-4.707 2.86 3.094 3.094 0 0 1-.73-.035l-.447-.274-.033-.017c1.682-1.84 4.055-3.885 5.363-3.885h.056zM37.55 14.609a3.667 3.667 0 0 0 2.525-.984 1.532 1.532 0 0 1 2.246 0 3.733 3.733 0 0 0 5.05 0c.288-.313.696-.49 1.123-.489a3.566 3.566 0 0 1 1.736.601c.523.308 1.083.55 1.666.722-.305 6.373-3.639 7.375-4.014 7.467a1.11 1.11 0 0 0-.325 0 28.03 28.03 0 0 1-1.9.198 7.6 7.6 0 0 0 .531-2.87 1.106 1.106 0 0 0-1.108-1.077h-.022c-.612.012-1.1.514-1.09 1.122.012.73-.216 2.372-1.004 2.792l-.22.16-.587.004-.362-.004a4.228 4.228 0 0 1-1.259-3.001 1.107 1.107 0 0 0-1.11-1.076H39.4c-.614.014-1.1.519-1.086 1.128a7.8 7.8 0 0 0 .66 2.84 31.874 31.874 0 0 1-1.847-.18 8.285 8.285 0 0 1-3.456-8.64c.331.129.655.274.97.436a6.414 6.414 0 0 0 2.908.85zm-11.948-.116a8.564 8.564 0 0 1 5.708 1.33 8.566 8.566 0 0 1-5.708 1.33 8.567 8.567 0 0 1-5.709-1.33 8.565 8.565 0 0 1 5.709-1.33zM15.08 27.016c2-.238 4.022.225 5.715 1.31v.001c-.125.372-2.067 1.35-5.716 1.35-2 .235-4.019-.227-5.713-1.307v-.008c.133-.375 2.073-1.346 5.714-1.346zM5.532 53.25a12.464 12.464 0 0 1 4.159-2.92c.264.108.534.201.807.281a10.977 10.977 0 0 1-3.075 4.523c-2.543 2.517-4.586 3.206-4.989 3.06-.146-.4.555-2.427 3.098-4.944zm3.885 3.87c-2.572 2.545-4.634 3.221-5.003 3.054l-.077-.06-.072-.089-.453-.452a14.259 14.259 0 0 0 4.763-3.291 16.056 16.056 0 0 0 2.977-3.889 7.08 7.08 0 0 0 .358-.825l.448.446.09.073.06.077.017.069a7.894 7.894 0 0 0-1.265 2.747c-.552.764-1.169 1.48-1.843 2.14zm3.834-.272a5.754 5.754 0 0 1 3.577-5.316 5.824 5.824 0 0 1 6.315 1.247A5.725 5.725 0 0 1 24.4 59.05a5.795 5.795 0 0 1-5.354 3.552c-3.198-.004-5.79-2.578-5.794-5.754zm19.281 8.477c2-.237 4.022.226 5.716 1.31v.002c-.125.372-2.066 1.35-5.716 1.35-2 .235-4.02-.227-5.714-1.308v-.008c.134-.375 2.075-1.346 5.714-1.346zm0 5.465c-3.652 0-5.593-.977-5.714-1.33l-.01-.112.01-.112V68.6c1.816.72 3.76 1.062 5.714 1.006a14.368 14.368 0 0 0 5.714-1.006v.636l.011.114-.009.09c-.122.372-2.064 1.35-5.716 1.35zm19.836-7.899a12.097 12.097 0 0 0 3.71-5.286c.503-1.393.702-2.875.586-4.35a1.104 1.104 0 0 0-.67-.88 1.117 1.117 0 0 0-1.103.137 1.1 1.1 0 0 0-.431 1.017c.143 4.059-2.265 7.78-6.042 9.337H36.45a10.77 10.77 0 0 1-5.602-6.018 1.113 1.113 0 0 0-1.412-.684c-.58.199-.888.826-.688 1.402.74 2.08 2.034 3.92 3.746 5.325a11.057 11.057 0 0 1-6.624-1.888 7.883 7.883 0 0 0 .83-6.525 7.95 7.95 0 0 0-4.413-4.904l.044-.585c.063-.17.095-.35.095-.532l-.008-.079.008-.134-.006-.052.052-.466A42.912 42.912 0 0 1 25.19 37.53a31.885 31.885 0 0 1 9.85-12.004c.274.198.568.366.877.504.295.129.597.24.906.334a8.315 8.315 0 0 0-1.003 2.37c-.075.282-.033.583.116.836.148.252.392.436.677.51l.282.036a1.11 1.11 0 0 0 1.074-.824 5.508 5.508 0 0 1 1.144-2.275l.156-.154c.386.047.79.086 1.215.116-.117.973-.15 1.954-.096 2.933.037.58.522 1.032 1.108 1.033l.07-.002a1.106 1.106 0 0 0 1.04-1.17 14.13 14.13 0 0 1 .114-2.726c.398-.006.808-.026 1.225-.063l.153.151a6.23 6.23 0 0 1 1.162 2.597c.118.497.565.849 1.08.85l.254-.03c.597-.14.967-.733.827-1.325a10.979 10.979 0 0 0-1.005-2.652l.73-.202.104.088a9.105 9.105 0 0 1 1.854 2.357c.305.525.98.706 1.51.406.531-.3.718-.97.42-1.498a14.869 14.869 0 0 0-1.524-2.156 31.51 31.51 0 0 1 10.064 11.963 43.044 43.044 0 0 1 2.76 10.2 19.821 19.821 0 0 1-.625 9.542 2.131 2.131 0 0 0-1.311 1.779v.58a9.779 9.779 0 0 1-8.029 3.256zm15.374.3c-3.652 0-5.594-.979-5.714-1.33l-.011-.114.011-.112V61c1.815.72 3.76 1.061 5.714 1.005A14.368 14.368 0 0 0 73.457 61v.635l.011.114-.009.09c-.122.372-2.064 1.35-5.716 1.35v.001zm6.017-6.228a16.643 16.643 0 0 1-1.86-2.17 13.47 13.47 0 0 0-.592-.925c-.561-.985-.721-1.67-.63-1.866l.061-.078.089-.072.456-.453a14.133 14.133 0 0 0 3.32 4.725 14.258 14.258 0 0 0 4.757 3.3l-.454.45-.072.089-.08.061c-.366.168-2.427-.512-4.995-3.061z"/>
            <text font-family="Roboto-Regular, Roboto" font-size="12.203" letter-spacing="-.572" transform="translate(0 10)">
                <tspan x="40.041" y="39.37" fill="#70AD4D">₹</tspan>
            </text>
            <path fill="#70AD4D" fill-rule="nonzero" d="M19.046 52.28c-2.54 0-4.6 2.046-4.6 4.568 0 2.523 2.06 4.567 4.6 4.567 2.54 0 4.6-2.044 4.6-4.567-.003-2.522-2.061-4.565-4.6-4.568zm0 6.93c-.963 0-1.83-.576-2.198-1.458a2.35 2.35 0 0 1 .516-2.574 2.39 2.39 0 0 1 2.592-.512 2.362 2.362 0 0 1 1.468 2.182 2.373 2.373 0 0 1-2.378 2.362z"/>
        </g>
    </g>
</svg>
