<svg xmlns="http://www.w3.org/2000/svg" xmlns:xlink="http://www.w3.org/1999/xlink" width="121" height="75" viewBox="0 0 121 75">
    <defs>
        <path id="b" d="M65.311 36.2h-.049V16.749c0-.81-.658-1.466-1.47-1.466h-7.741L50.266 3.879a1.469 1.469 0 0 0-1.976-.647l-23.896 12.05H8.954a5.923 5.923 0 0 0-5.948 5.704V21l-.001.01c-.003.07-.005.139-.005.208v39.771c0 3.273 2.671 5.936 5.954 5.936h54.838c.812 0 1.47-.656 1.47-1.465V54.17h.049A3.688 3.688 0 0 0 69 50.49V39.88A3.688 3.688 0 0 0 65.31 36.2z"/>
        <filter id="a" width="121.2%" height="121.9%" x="-10.6%" y="-7.8%" filterUnits="objectBoundingBox">
            <feOffset dy="2" in="SourceAlpha" result="shadowOffsetOuter1"/>
            <feGaussianBlur in="shadowOffsetOuter1" result="shadowBlurOuter1" stdDeviation="2"/>
            <feColorMatrix in="shadowBlurOuter1" values="0 0 0 0 0.439215686 0 0 0 0 0.678431373 0 0 0 0 0.301960784 0 0 0 0.300724638 0"/>
        </filter>
        <path id="d" d="M62.311 33.2h-.049V13.749c0-.81-.658-1.466-1.47-1.466h-7.741L47.266.879A1.469 1.469 0 0 0 45.29.232l-23.896 12.05H5.954a5.923 5.923 0 0 0-5.948 5.704V18l-.001.01c-.003.07-.005.139-.005.208v39.771c0 3.273 2.671 5.936 5.954 5.936h54.838c.812 0 1.47-.656 1.47-1.465V51.17h.049A3.688 3.688 0 0 0 66 47.49V36.88A3.688 3.688 0 0 0 62.31 33.2zm-2.989-17.987v5.685h-1.9l-2.884-5.685h4.784zm-36.914-.157l.001-.001L45.305 3.51l5.53 10.898v.001l3.291 6.489h-2.85c-.018-.05-.039-.101-.064-.15l-3.784-7.459a1.472 1.472 0 0 0-1.588-.778l-.45.086a4.262 4.262 0 0 1-4.414-1.942l-.293-.476a1.473 1.473 0 0 0-1.917-.542l-22.332 11.26h-5.612l11.586-5.841zm25.585 5.842H22.95l15.976-8.056a7.237 7.237 0 0 0 6.365 2.728l2.703 5.328zM5.954 15.213h9.626L4.78 20.66a3.036 3.036 0 0 1-1.718-1.931l-.008-.026a2.944 2.944 0 0 1-.107-.658 2.996 2.996 0 0 1 3.007-2.83zm53.368 45.78H5.954A3.013 3.013 0 0 1 2.94 57.99v-.682h44.924c.811 0 1.47-.656 1.47-1.466 0-.809-.659-1.465-1.47-1.465H2.94V23.02a5.932 5.932 0 0 0 1.93.708l.01.003h.006l.04.008h.002l.034.005c.087.014.173.028.261.038l.052.007h.001l.123.01c.06.006.12.013.181.017l.045.003c.115.006.223.01.33.01h53.367v3.233H14.008c-.812 0-1.47.656-1.47 1.466 0 .81.658 1.465 1.47 1.465h45.314v3.207H38.055c-.812 0-1.47.656-1.47 1.466v15.037c0 .809.658 1.465 1.47 1.465h21.267v9.825zm2.989-12.755H39.525V36.132H62.311c.413 0 .749.335.749.747V47.49a.748.748 0 0 1-.749.747z"/>
        <filter id="c" width="121.2%" height="121.9%" x="-10.6%" y="-7.8%" filterUnits="objectBoundingBox">
            <feOffset dy="2" in="SourceAlpha" result="shadowOffsetOuter1"/>
            <feGaussianBlur in="shadowOffsetOuter1" result="shadowBlurOuter1" stdDeviation="2"/>
            <feColorMatrix in="shadowBlurOuter1" values="0 0 0 0 0.439215686 0 0 0 0 0.678431373 0 0 0 0 0.301960784 0 0 0 0.300724638 0"/>
        </filter>
        <path id="f" d="M46.829 37.651c-2.51 0-4.55 2.036-4.55 4.537 0 2.502 2.04 4.537 4.55 4.537 2.509 0 4.55-2.035 4.55-4.537 0-2.501-2.041-4.537-4.55-4.537zm0 6.67a2.14 2.14 0 0 1-2.14-2.133 2.14 2.14 0 0 1 2.14-2.133c1.18 0 2.14.957 2.14 2.133 0 1.177-.96 2.134-2.14 2.134z"/>
        <filter id="e" width="253.8%" height="254.3%" x="-76.9%" y="-55.1%" filterUnits="objectBoundingBox">
            <feOffset dy="2" in="SourceAlpha" result="shadowOffsetOuter1"/>
            <feGaussianBlur in="shadowOffsetOuter1" result="shadowBlurOuter1" stdDeviation="2"/>
            <feColorMatrix in="shadowBlurOuter1" values="0 0 0 0 0.439215686 0 0 0 0 0.678431373 0 0 0 0 0.301960784 0 0 0 0.300724638 0"/>
        </filter>
        <path id="h" d="M53.775 55.555a1.468 1.468 0 0 0-2.258-.932 1.395 1.395 0 0 0-.406.405 1.457 1.457 0 0 0-.247.813 1.457 1.457 0 0 0 .907 1.354 1.489 1.489 0 0 0 .85.084 1.489 1.489 0 0 0 .753-.402 1.479 1.479 0 0 0 .43-1.036c0-.095-.01-.192-.03-.286z"/>
        <filter id="g" width="576.2%" height="577.8%" x="-238.1%" y="-170.6%" filterUnits="objectBoundingBox">
            <feOffset dy="2" in="SourceAlpha" result="shadowOffsetOuter1"/>
            <feGaussianBlur in="shadowOffsetOuter1" result="shadowBlurOuter1" stdDeviation="2"/>
            <feColorMatrix in="shadowBlurOuter1" values="0 0 0 0 0.439215686 0 0 0 0 0.678431373 0 0 0 0 0.301960784 0 0 0 0.300724638 0"/>
        </filter>
        <path id="j" d="M10.98 28.242a1.464 1.464 0 0 0-.88-1.067 1.457 1.457 0 0 0-1.125 0 1.455 1.455 0 0 0-.878 1.067 1.454 1.454 0 0 0 .879 1.64 1.483 1.483 0 0 0 .85.084 1.5 1.5 0 0 0 .935-.623 1.557 1.557 0 0 0 .219-.528 1.454 1.454 0 0 0 0-.573z"/>
        <filter id="i" width="576.1%" height="577.5%" x="-238.1%" y="-170.5%" filterUnits="objectBoundingBox">
            <feOffset dy="2" in="SourceAlpha" result="shadowOffsetOuter1"/>
            <feGaussianBlur in="shadowOffsetOuter1" result="shadowBlurOuter1" stdDeviation="2"/>
            <feColorMatrix in="shadowBlurOuter1" values="0 0 0 0 0.439215686 0 0 0 0 0.678431373 0 0 0 0 0.301960784 0 0 0 0.300724638 0"/>
        </filter>
    </defs>
    <g fill="none" fill-rule="evenodd">
        <text fill="#CCC"  font-size="50" font-weight="500" transform="translate(-2 -5)">
            <tspan x="60.163" y="61" font-family="-apple-system,BlinkMacSystemFont,Segoe UI,Roboto,Helvetica,Arial,sans-serif">03</tspan>
        </text>
        <g fill-rule="nonzero">
            <g opacity=".1" transform="translate(4 2)">
                <use fill="#000" filter="url(#a)" xlink:href="#b"/>
                <use fill="#70AD4D" xlink:href="#b"/>
            </g>
            <g transform="translate(4 2)">
                <use fill="#000" filter="url(#c)" xlink:href="#d"/>
                <use fill="#70AD4D" xlink:href="#d"/>
            </g>
            <g transform="translate(4 2)">
                <use fill="#000" filter="url(#e)" xlink:href="#f"/>
                <use fill="#70AD4D" xlink:href="#f"/>
            </g>
            <g transform="translate(4 2)">
                <use fill="#000" filter="url(#g)" xlink:href="#h"/>
                <use fill="#70AD4D" xlink:href="#h"/>
            </g>
            <g transform="translate(4 2)">
                <use fill="#000" filter="url(#i)" xlink:href="#j"/>
                <use fill="#70AD4D" xlink:href="#j"/>
            </g>
        </g>
    </g>
</svg>
