<svg xmlns="http://www.w3.org/2000/svg" width="63" height="64" viewBox="0 0 63 64">
    <g fill="#70AD4D" fill-rule="nonzero">
        <path d="M60 58c-1.654 0-3 1.346-3 3s1.346 3 3 3 3-1.346 3-3-1.346-3-3-3zm0 4c-.55 0-1-.448-1-1s.45-1 1-1 1 .448 1 1-.45 1-1 1zM6 3c0-1.654-1.346-3-3-3S0 1.346 0 3s1.346 3 3 3 3-1.346 3-3zM2 3c0-.55.45-1 1-1s1 .45 1 1-.45 1-1 1-1-.45-1-1zM54.658 40.252l-2.013-4.013a22.48 22.48 0 0 0 1.093-2.606L58 32.217V20.59l-4.262-1.417c-.3-.869-.666-1.741-1.093-2.605l2.015-4.017-8.246-8.221-4.03 2.009a22.45 22.45 0 0 0-2.613-1.09L38.351 1H26.687l-1.42 4.249a22.45 22.45 0 0 0-2.614 1.09l-4.03-2.01-8.246 8.222 2.015 4.017a22.307 22.307 0 0 0-1.093 2.605L7.038 20.59v11.626l4.262 1.416c.298.863.66 1.727 1.082 2.584l-1.31 2.38H5V58.92h7.135v-3.048h7.731l3.058 3.048h5.518v1.016A4.075 4.075 0 0 0 32.52 64a4.075 4.075 0 0 0 4.077-4.065V58.92h7.136a3.057 3.057 0 0 0 3.057-3.048c0-.783-.306-1.491-.794-2.032a3.02 3.02 0 0 0 .794-2.033c0-.783-.306-1.491-.794-2.032.389-.43.655-.968.748-1.568l7.915-7.954zM14.44 35.766a20.305 20.305 0 0 1-1.36-3.243l-.157-.493-3.845-1.279v-8.697l3.845-1.277.156-.495c.34-1.076.798-2.168 1.36-3.241l.24-.46-1.82-3.63 6.168-6.148 3.64 1.814.461-.239a20.32 20.32 0 0 1 3.251-1.356l.497-.155 1.283-3.835h8.723l1.282 3.834.496.155c1.08.34 2.174.796 3.251 1.356l.462.239 3.64-1.814 6.167 6.149-1.82 3.628.24.46a20.19 20.19 0 0 1 1.36 3.242l.156.495 3.847 1.28v8.696l-3.846 1.278-.157.493a20.305 20.305 0 0 1-1.36 3.243l-.24.46 1.822 3.631-6.023 6.05a3.145 3.145 0 0 0-.163-.197 3.02 3.02 0 0 0 .794-2.033c0-1.585-1.224-2.875-2.776-3.02a18.158 18.158 0 0 0 6.852-14.254c0-10.085-8.23-18.29-18.346-18.29-10.115 0-18.346 8.205-18.346 18.29 0 5.547 2.53 10.765 6.824 14.226h-8.719l2.413-4.382-.252-.481zm30.312 16.04c0 .561-.458 1.017-1.02 1.017h-8.154c-.561 0-1.02-.456-1.02-1.017 0-.56.459-1.016 1.02-1.016h8.155c.561 0 1.019.456 1.019 1.016zM30.059 26.403h4.92l1.617-1.611v-4.486c1.124 0 2.039.912 2.039 2.033v4.66l-3.48 3.469h-5.271l-3.48-3.47v-4.66c0-1.12.914-2.032 2.038-2.032v4.486l1.617 1.611zm.422 6.097h4.077v4.065H30.48V32.5zm6.115-.595l4.077-4.065V22.34a4.075 4.075 0 0 0-4.077-4.065h-2.038v5.676l-.422.421h-3.233l-.422-.42v-5.677h-2.039a4.075 4.075 0 0 0-4.077 4.065v5.501l4.077 4.065v4.66h-2.46l-.064.064c-3.48-2.24-5.63-6.077-5.63-10.226 0-6.724 5.487-12.193 12.231-12.193 6.745 0 12.231 5.47 12.231 12.193 0 4.119-2.064 7.89-5.518 10.162h-2.636v-4.66zm10.192-5.502c0-7.845-6.4-14.226-14.269-14.226-7.868 0-14.269 6.381-14.269 14.226 0 4.694 2.342 9.064 6.184 11.705l-1.468 1.463a16.25 16.25 0 0 1-6.754-13.168c0-8.964 7.316-16.258 16.307-16.258 8.992 0 16.308 7.294 16.308 16.258 0 5.022-2.277 9.655-6.164 12.727a3.023 3.023 0 0 0-1.015-1.808 14.115 14.115 0 0 0 5.14-10.919zm-3.056 16.258c.561 0 1.019.456 1.019 1.016 0 .561-.458 1.017-1.02 1.017h-8.154c-.561 0-1.02-.456-1.02-1.017 0-.56.459-1.016 1.02-1.016h8.155zm-8.155 6.097c-.561 0-1.02-.455-1.02-1.016 0-.56.459-1.016 1.02-1.016h8.155c.561 0 1.019.455 1.019 1.016 0 .56-.458 1.016-1.02 1.016h-8.154zm-25.48 8.13H7.037V40.628h3.058v16.258zm13.671 0l-3.058-3.05h-8.575V42.662h10.614l4.077-4.064h12.828c.561 0 1.02.455 1.02 1.016 0 .56-.459 1.016-1.02 1.016H29.04l-4.376 4.362 1.441 1.437 2.337-2.33v12.79h-4.674zm8.751 5.08a2.037 2.037 0 0 1-2.038-2.033V42.661h2.226a2.998 2.998 0 0 0-.188 1.016c0 .784.307 1.492.795 2.033a3.02 3.02 0 0 0-.795 2.032c0 .783.307 1.491.795 2.032a3.02 3.02 0 0 0-.795 2.032c0 .784.307 1.492.795 2.033a3.02 3.02 0 0 0-.795 2.032c0 1.323.855 2.44 2.039 2.861v1.203c0 1.121-.915 2.033-2.039 2.033zm11.213-5.08h-8.155c-.561 0-1.02-.456-1.02-1.017 0-.56.459-1.016 1.02-1.016h8.155c.561 0 1.019.455 1.019 1.016 0 .56-.458 1.016-1.02 1.016zM2 9h2v2H2zM2 14h2v2H2zM2 19h2v2H2zM59 43h2v2h-2zM59 48h2v2h-2zM59 53h2v2h-2z"/>
    </g>
</svg>
