<svg xmlns="http://www.w3.org/2000/svg" width="61" height="65" viewBox="0 0 61 65">
    <g fill="none" fill-rule="nonzero">
        <g fill="#70AD4D">
            <path d="M48.806 5.078h2.032v12.188h-2.032zM2.065 5.078h2.032v12.188H2.065zM8.161 0h2.032v10.156H8.161zM42.71 7.109h2.032v5.078H42.71zM20.355 1.016h2.032v4.063h-2.032zM14.258 4.063h2.032v5.078h-2.032zM36.613 1.016h2.032v7.109h-2.032zM33.565 59.922a3.051 3.051 0 0 1-3.049 3.047 3.051 3.051 0 0 1-3.048-3.047V33.557c2.337.203 4.613 1.111 6.404 2.72l.638.704.07-.065.072.065.637-.704c4.11-3.692 10.769-3.686 14.868.022l1.698 1.537v-2.29c0-13.66-10.85-24.828-24.387-25.364V7.109h-2.033v3.073c-13.537.536-24.387 11.705-24.387 25.365v2.29l1.698-1.538c4.098-3.707 10.76-3.714 14.868-.022l.637.704.072-.065.07.065.638-.704c1.791-1.609 4.067-2.517 6.404-2.72v26.365c0 2.8 2.28 5.078 5.081 5.078a5.085 5.085 0 0 0 5.08-5.078v-1.016h-2.031v1.016zM49.729 33.45c-4.258-2.629-9.932-2.6-14.163.08-.239-8.478-1.975-16.96-5.058-20.974 10.284 1.808 18.277 10.345 19.221 20.894zm-46.555 0c.944-10.548 8.937-19.085 19.221-20.894-3.083 4.015-4.82 12.496-5.058 20.975-4.231-2.683-9.904-2.71-14.163-.081zm16.2.048c.35-12.655 3.884-21.31 7.078-21.31 3.193 0 6.727 8.655 7.078 21.31-1.832-1.146-3.926-1.8-6.062-1.957v-.057h-2.033v.057c-2.134.157-4.23.81-6.062 1.957z"/>
            <path d="M46.774 43.672a4.068 4.068 0 0 0-4.064 4.062 4.068 4.068 0 0 0 4.064 4.063 4.068 4.068 0 0 0 4.065-4.063 4.068 4.068 0 0 0-4.065-4.062zm0 6.094a2.034 2.034 0 0 1-2.032-2.032c0-1.12.911-2.03 2.032-2.03s2.032.91 2.032 2.03c0 1.12-.911 2.032-2.032 2.032z"/>
            <path d="M32.548 39.61v16.25H61V39.61H32.548zM54.96 53.492l-.117.335H38.711l-.129-.35c-.598-1.63-2.073-3.099-3.666-3.657l-.335-.115V45.77l.35-.129c1.631-.599 3.1-2.072 3.657-3.664l.117-.336h16.131l.13.35c.598 1.63 2.072 3.099 3.665 3.656l.337.116v3.936l-.35.129c-1.632.599-3.101 2.072-3.658 3.665zm4.008-9.908c-.789-.386-1.534-1.133-1.94-1.944h1.94v1.944zM36.526 41.64c-.387.788-1.133 1.532-1.945 1.938v-1.938h1.945zM34.58 51.884c.788.386 1.533 1.133 1.94 1.944h-1.94v-1.944zm22.442 1.944c.386-.788 1.133-1.532 1.945-1.939v1.94h-1.945zM15.258 38.594a6.101 6.101 0 0 0-6.097 6.093 6.101 6.101 0 0 0 6.097 6.094 6.101 6.101 0 0 0 6.097-6.093 6.101 6.101 0 0 0-6.097-6.094zm0 10.156a4.068 4.068 0 0 1-4.064-4.063 4.068 4.068 0 0 1 4.064-4.062 4.068 4.068 0 0 1 4.065 4.063 4.068 4.068 0 0 1-4.065 4.062zM5.08 46.719A5.085 5.085 0 0 0 0 51.797c0 2.8 2.28 5.078 5.08 5.078a5.085 5.085 0 0 0 5.081-5.078c0-2.8-2.279-5.078-5.08-5.078zm0 8.125a3.051 3.051 0 0 1-3.048-3.047 3.051 3.051 0 0 1 3.049-3.047 3.051 3.051 0 0 1 3.048 3.047 3.051 3.051 0 0 1-3.048 3.047zM14.226 51.86a4.068 4.068 0 0 0-4.065 4.062 4.068 4.068 0 0 0 4.065 4.062 4.068 4.068 0 0 0 4.064-4.062 4.068 4.068 0 0 0-4.064-4.063zm0 6.093a2.034 2.034 0 0 1-2.032-2.031c0-1.12.911-2.031 2.032-2.031 1.12 0 2.032.91 2.032 2.03 0 1.121-.911 2.032-2.032 2.032z"/>
        </g>
        <circle cx="47" cy="48" r="2" fill="#FFF"/>
    </g>
</svg>
