<svg xmlns="http://www.w3.org/2000/svg" xmlns:xlink="http://www.w3.org/1999/xlink" width="89" height="36" viewBox="0 0 89 36">
    <defs>
        <path id="a" d="M14.871 21.49V.26H.018V21.49H14.87z"/>
        <path id="c" d="M18.999 32.937H0V.002h18.999v32.935z"/>
    </defs>
    <g fill="none" fill-rule="evenodd">
        <path d="M-10-7H96v47H-10z"/>
        <path fill="#FFF" d="M46.031 24.958h11.453l-1.72 4.245h-18.09L48.07 12.221h-8.918V7.975h17.3z"/>
        <path fill="#FFF" d="M64.238 14.537h-.051l-2.344 6.175h4.739l-2.344-6.175zm10.675 14.667h-5.146l-1.555-4.246h-8l-1.554 4.246h-5.146l8.484-21.229h4.433l8.484 21.229z"/>
        <g transform="translate(74.04 7.504)">
            <mask id="b" fill="#fff">
                <use xlink:href="#a"/>
            </mask>
            <path fill="#FFF" d="M6.158 9.756c1.886 0 3.669-.643 3.669-2.805 0-2.187-1.783-2.83-3.669-2.83h-1.35v5.635h1.35zM7.687.261c4.102 0 7.184 2.136 7.184 6.536 0 4.374-3.082 6.819-7.184 6.819h-2.88v7.873H.018V.261h7.67z" mask="url(#b)"/>
        </g>
        <g transform="translate(.306 2.85)">
            <mask id="d" fill="#fff">
                <use xlink:href="#c"/>
            </mask>
            <path fill="#FFF" d="M6.383 22.108l3.28-9.16L19 11.374 9.699.002 1.687 4.78A3.475 3.475 0 0 0 0 7.798l.143 14.67a3.472 3.472 0 0 0 1.745 2.985l12.651 7.21c.203.117.418.203.636.274L6.383 22.108z" mask="url(#d)"/>
        </g>
        <path fill="#FFF" d="M32.33 10.331a3.472 3.472 0 0 0-1.746-2.985L18.558.492l9.24 10.823-3.28 9.16-9.412 1.79 8.2 10.215 7.48-4.46a3.474 3.474 0 0 0 1.686-3.019l-.142-14.67z"/>
    </g>
</svg>
